<?xml version="1.0" encoding="utf-8"?>
<!-- Generator: Adobe Illustrator 12.0.0, SVG Export Plug-In . SVG Version: 6.00 Build 51448)  -->
<!DOCTYPE svg PUBLIC "-//W3C//DTD SVG 1.1//EN" "http://www.w3.org/Graphics/SVG/1.1/DTD/svg11.dtd" [
	<!ENTITY ns_svg "http://www.w3.org/2000/svg">
	<!ENTITY ns_xlink "http://www.w3.org/1999/xlink">
]>
<svg  version="1.1" id="レイヤー_1" xmlns="&ns_svg;" xmlns:xlink="&ns_xlink;" width="330.362" height="329.667"
	 viewBox="0 0 330.362 329.667" overflow="visible" enable-background="new 0 0 330.362 329.667" xml:space="preserve">
<path fill="#FFFFFF" stroke="#000000" d="M165.181,327.833c0,0,27.986,1.334,56.652,1.334c-9.334-12-33.334-56-32-82
	c22.666,22,36.666,30,62.666,31.333c34-0.667,76-26,77.334-80.667s-44-74-98-75.333c6-10.667,10.666-34.667,10.666-53.333
	C241.833,36.5,210.514,0.5,165.181,0.5s-76.652,36-77.319,68.667c0,18.667,4.667,42.666,10.667,53.333
	c-54,1.333-99.333,20.666-98,75.333s43.333,80,77.333,80.667c26-1.333,40-9.333,62.667-31.333c1.333,26-22.667,70-32,82
	C137.195,329.167,165.181,327.833,165.181,327.833z"/>
</svg>
