<?xml version="1.0" encoding="utf-8"?>
<!-- Generator: Adobe Illustrator 12.0.0, SVG Export Plug-In . SVG Version: 6.00 Build 51448)  -->
<!DOCTYPE svg PUBLIC "-//W3C//DTD SVG 1.1//EN" "http://www.w3.org/Graphics/SVG/1.1/DTD/svg11.dtd" [
	<!ENTITY ns_svg "http://www.w3.org/2000/svg">
	<!ENTITY ns_xlink "http://www.w3.org/1999/xlink">
]>
<svg  version="1.1" id="レイヤー_1" xmlns="&ns_svg;" xmlns:xlink="&ns_xlink;" width="283.701" height="263.341"
	 viewBox="0 0 283.701 263.341" overflow="visible" enable-background="new 0 0 283.701 263.341" xml:space="preserve">
<path fill="#FFFFFF" stroke="#000000" d="M147.055,261.792c0,0,1.74-5.628,6.751-14.425c7.753-13.459,30.575-43.798,70.097-71.073
	c23.058-17.331,60.903-56.531,59.246-103.513c-1.355-23.961-26.813-75.606-79.701-72.113c-12.951,1.234-29.401-1.827-62.697,38.118
	c-35.5-38-51.75-34-64.75-34.5c-53-0.5-75.5,52.5-75.5,76.5c1,47,41,84,65,100c41,25,65.5,54,74,67
	C145,256.287,147.055,261.792,147.055,261.792z"/>
</svg>
