<?xml version="1.0" encoding="utf-8"?>
<!-- Generator: Adobe Illustrator 12.0.0, SVG Export Plug-In . SVG Version: 6.00 Build 51448)  -->
<!DOCTYPE svg PUBLIC "-//W3C//DTD SVG 1.1//EN" "http://www.w3.org/Graphics/SVG/1.1/DTD/svg11.dtd" [
	<!ENTITY ns_svg "http://www.w3.org/2000/svg">
	<!ENTITY ns_xlink "http://www.w3.org/1999/xlink">
]>
<svg  version="1.1" id="レイヤー_1" xmlns="&ns_svg;" xmlns:xlink="&ns_xlink;" width="370.664" height="410.399"
	 viewBox="0 0 370.664 410.399" overflow="visible" enable-background="new 0 0 370.664 410.399" xml:space="preserve">
<path fill="#FF4000" stroke="#000000" d="M185.332,409.899c0,0,68.269-0.749,68.81-0.791c-44-31-56.979-82.209-57.979-131.209
	c14,45,46,61,107,50c39-9,67-44,67-87c0-51-26-85-94-138c-46-35-90.832-102-90.832-102s-44.832,67-90.832,102c-68,53-94,87-94,138
	c0,43,28,78,67,87c61,11,93-5,107-50c-1,49-13.979,100.209-57.979,131.209C117.063,409.15,185.332,409.899,185.332,409.899z"/>
</svg>
